<svg xmlns="http://www.w3.org/2000/svg" width="46" height="26" viewBox="0 0 46 26">
  <g id="Group_14829" data-name="Group 14829" transform="translate(-351 -175)">
    <rect id="Rectangle_7134" data-name="Rectangle 7134" width="46" height="26" rx="7" transform="translate(351 175)" fill="#31343b"/>
    <path id="Path_16723" data-name="Path 16723" d="M-14.459-3.96a4.093,4.093,0,0,1,.253-1.4,3.877,3.877,0,0,1,.742-1.254,3.746,3.746,0,0,1,1.193-.9,3.613,3.613,0,0,1,1.6-.341,3.384,3.384,0,0,1,1.826.473A3.074,3.074,0,0,1-7.705-6.149l-.968.649a2.209,2.209,0,0,0-.4-.594,1.93,1.93,0,0,0-.506-.385,2.176,2.176,0,0,0-.572-.2,2.865,2.865,0,0,0-.572-.06A2.249,2.249,0,0,0-11.8-6.5a2.393,2.393,0,0,0-.776.655,2.923,2.923,0,0,0-.473.913,3.35,3.35,0,0,0-.16,1.012,3.177,3.177,0,0,0,.187,1.089,2.951,2.951,0,0,0,.523.913,2.57,2.57,0,0,0,.8.632,2.188,2.188,0,0,0,1.012.237,2.555,2.555,0,0,0,.589-.072,2.2,2.2,0,0,0,.583-.231A2.336,2.336,0,0,0-9-1.749a2.005,2.005,0,0,0,.39-.583l1.023.583a2.388,2.388,0,0,1-.528.775,3.369,3.369,0,0,1-.77.567,3.948,3.948,0,0,1-.907.352,3.827,3.827,0,0,1-.941.121,3.236,3.236,0,0,1-1.507-.352A3.958,3.958,0,0,1-13.414-1.2a4.232,4.232,0,0,1-.77-1.287A4.087,4.087,0,0,1-14.459-3.96ZM-3.272.055A3.427,3.427,0,0,1-4.8-.28a3.8,3.8,0,0,1-1.182-.891,4.025,4.025,0,0,1-.765-1.27A4.116,4.116,0,0,1-7.012-3.9a3.991,3.991,0,0,1,.286-1.5A4.153,4.153,0,0,1-5.94-6.666a3.757,3.757,0,0,1,1.188-.875,3.473,3.473,0,0,1,1.5-.324,3.336,3.336,0,0,1,1.524.346A3.834,3.834,0,0,1-.55-6.611,4.165,4.165,0,0,1,.209-5.34a4.043,4.043,0,0,1,.27,1.446A4.06,4.06,0,0,1,.2-2.4a3.95,3.95,0,0,1-.786,1.26,3.864,3.864,0,0,1-1.194.869A3.447,3.447,0,0,1-3.272.055ZM-5.758-3.9a3.289,3.289,0,0,0,.176,1.067,2.9,2.9,0,0,0,.5.913,2.446,2.446,0,0,0,.786.632,2.236,2.236,0,0,0,1.034.237A2.169,2.169,0,0,0-2.211-1.3a2.471,2.471,0,0,0,.775-.655,2.949,2.949,0,0,0,.484-.913A3.315,3.315,0,0,0-.786-3.9,3.273,3.273,0,0,0-.962-4.977a2.845,2.845,0,0,0-.5-.9,2.5,2.5,0,0,0-.781-.627,2.179,2.179,0,0,0-1.018-.236A2.2,2.2,0,0,0-4.317-6.5a2.517,2.517,0,0,0-.781.643,2.888,2.888,0,0,0-.49.908A3.267,3.267,0,0,0-5.758-3.9ZM1.755,0V-7.81H5.033a2.168,2.168,0,0,1,.974.22,2.491,2.491,0,0,1,.764.578,2.723,2.723,0,0,1,.5.814,2.5,2.5,0,0,1,.181.929,2.7,2.7,0,0,1-.171.951A2.663,2.663,0,0,1,6.8-3.5a2.33,2.33,0,0,1-.742.572,2.144,2.144,0,0,1-.963.214H2.987V0ZM2.987-3.806H5.022a1.033,1.033,0,0,0,.479-.11,1.1,1.1,0,0,0,.368-.308,1.537,1.537,0,0,0,.242-.462A1.835,1.835,0,0,0,6.2-5.269a1.682,1.682,0,0,0-.1-.594,1.393,1.393,0,0,0-.275-.457,1.257,1.257,0,0,0-.4-.3,1.1,1.1,0,0,0-.468-.1H2.987Zm6.083-4,2.156,3.916L13.4-7.81h1.353L11.842-2.794V0H10.61V-2.816L7.717-7.81Z" transform="translate(373.959 192.365)" fill="#eafcff" stroke="#eafcff" stroke-width="0.2"/>
  </g>
</svg>
