<svg id="Download-Use" xmlns="http://www.w3.org/2000/svg" xmlns:xlink="http://www.w3.org/1999/xlink" width="46" height="26" viewBox="0 0 46 26">
  <defs>
    <linearGradient id="linear-gradient" x1="0.061" y1="-0.158" x2="0.867" y2="1.235" gradientUnits="objectBoundingBox">
      <stop offset="0" stop-color="#00e2ff"/>
      <stop offset="1" stop-color="#4a9dff"/>
    </linearGradient>
    <filter id="Use" x="11.401" y="8.4" width="23.08" height="9.987" filterUnits="userSpaceOnUse">
      <feOffset dy="1" input="SourceAlpha"/>
      <feGaussianBlur result="blur"/>
      <feFlood flood-opacity="0.027"/>
      <feComposite operator="in" in2="blur"/>
      <feComposite in="SourceGraphic"/>
    </filter>
  </defs>
  <rect id="Rectangle_7134" data-name="Rectangle 7134" width="46" height="26" rx="7" fill="url(#linear-gradient)"/>
  <g transform="matrix(1, 0, 0, 1, 0, 0)" filter="url(#Use)">
    <path id="Use-2" data-name="Use" d="M-8.275-1.762A2.184,2.184,0,0,0-7.143-2.03a2.136,2.136,0,0,0,.724-.7,2.95,2.95,0,0,0,.389-.986,5.553,5.553,0,0,0,.116-1.138V-9.234h1.375v4.381A6.544,6.544,0,0,1-4.746-3.18,3.862,3.862,0,0,1-5.4-1.8a3.139,3.139,0,0,1-1.162.931,3.931,3.931,0,0,1-1.71.341,3.85,3.85,0,0,1-1.746-.359,3.145,3.145,0,0,1-1.15-.961A3.951,3.951,0,0,1-11.8-3.234,6.649,6.649,0,0,1-12-4.853V-9.234h1.363v4.381A5.614,5.614,0,0,0-10.52-3.7a2.95,2.95,0,0,0,.389.986,2.066,2.066,0,0,0,.73.694A2.233,2.233,0,0,0-8.275-1.762ZM2.508-7.2a1.869,1.869,0,0,0-.353-.286,3.531,3.531,0,0,0-.542-.286,3.949,3.949,0,0,0-.682-.219,3.389,3.389,0,0,0-.761-.085A2.072,2.072,0,0,0-1.1-7.762a1.047,1.047,0,0,0-.408.876.949.949,0,0,0,.128.517,1.1,1.1,0,0,0,.4.353,3.1,3.1,0,0,0,.669.268q.4.116.937.249a10.715,10.715,0,0,1,1.187.353A3.377,3.377,0,0,1,2.7-4.67a1.932,1.932,0,0,1,.566.688,2.228,2.228,0,0,1,.2.992A2.4,2.4,0,0,1,3.22-1.859a2.125,2.125,0,0,1-.682.773,3.008,3.008,0,0,1-1,.438A5.161,5.161,0,0,1,.3-.508a6.132,6.132,0,0,1-1.9-.3,5.46,5.46,0,0,1-1.661-.87l.621-1.168a2.9,2.9,0,0,0,.456.353,4.25,4.25,0,0,0,.694.359,6.079,6.079,0,0,0,.858.28,3.949,3.949,0,0,0,.961.116,2.306,2.306,0,0,0,1.241-.28.919.919,0,0,0,.438-.828.887.887,0,0,0-.164-.548,1.41,1.41,0,0,0-.469-.383,4.085,4.085,0,0,0-.742-.3q-.438-.134-1-.28A10.337,10.337,0,0,1-1.49-4.713a2.817,2.817,0,0,1-.8-.456A1.792,1.792,0,0,1-2.768-5.8a2.082,2.082,0,0,1-.164-.87,2.51,2.51,0,0,1,.243-1.126,2.406,2.406,0,0,1,.663-.828,2.9,2.9,0,0,1,.992-.505A4.331,4.331,0,0,1,.207-9.3a4.552,4.552,0,0,1,1.619.28,5.356,5.356,0,0,1,1.3.694Zm8.373,5.4v1.2H4.954V-9.234h5.817v1.2H6.317v2.458h3.858v1.132H6.317V-1.8Z" transform="translate(23.5 17.79)" fill="#fff" stroke="#fff" stroke-width="0.2"/>
  </g>
</svg>
