<svg id="Download-Use" xmlns="http://www.w3.org/2000/svg" xmlns:xlink="http://www.w3.org/1999/xlink" width="46" height="26" viewBox="0 0 46 26">
  <defs>
    <linearGradient id="linear-gradient" x1="0.061" y1="-0.158" x2="0.867" y2="1.235" gradientUnits="objectBoundingBox">
      <stop offset="0" stop-color="#00e2ff"/>
      <stop offset="1" stop-color="#4a9dff"/>
    </linearGradient>
  </defs>
  <rect id="Rectangle_7134" data-name="Rectangle 7134" width="46" height="26" rx="7" fill="url(#linear-gradient)"/>
  <path id="Download" d="M9.455,17.849,7.617,15.912a.669.669,0,0,1,0-.917.607.607,0,0,1,.87,0l.735.774V9.751a.62.62,0,1,1,1.239,0v6.2l.929-.978a.592.592,0,0,1,.87,0,.692.692,0,0,1,0,.918L10.4,17.849a.655.655,0,0,1-.484.184A.59.59,0,0,1,9.455,17.849Zm4.8-4.283H12.94a.792.792,0,0,1-.622-.8.745.745,0,0,1,.622-.747h1.323a2.152,2.152,0,0,0,1.773-.946,2.4,2.4,0,0,0,.313-2.067,2.245,2.245,0,0,0-1.4-1.48.738.738,0,0,1-.352-.262.8.8,0,0,1-.151-.426,4.117,4.117,0,0,0-1.224-2.673A3.717,3.717,0,0,0,10.587,3.1a3.93,3.93,0,0,0-3.835,3.6.789.789,0,0,1-.238.5.715.715,0,0,1-.5.2H5.579A2.17,2.17,0,0,0,3.685,8.561a2.413,2.413,0,0,0,0,2.3,2.169,2.169,0,0,0,1.894,1.153l.935,0a.747.747,0,0,1,.752.749.807.807,0,0,1-.752.8l-.935,0H5.573a3.624,3.624,0,0,1-3.121-1.875,4.03,4.03,0,0,1-.09-3.783A3.645,3.645,0,0,1,5.39,5.868,5.573,5.573,0,0,1,7.263,2.741a5.078,5.078,0,0,1,3.324-1.186,5.159,5.159,0,0,1,3.449,1.324A5.683,5.683,0,0,1,15.85,6.241a3.819,3.819,0,0,1,1.992,2.615,4.008,4.008,0,0,1-.71,3.268,3.585,3.585,0,0,1-2.85,1.442Z" transform="translate(13.065 3.206)" fill="#fff"/>
</svg>
