<svg xmlns="http://www.w3.org/2000/svg" width="14.4" height="18" viewBox="0 0 14.4 18">
  <g id="Play" transform="translate(17.564 -3.507) rotate(90)" fill="none" stroke-linecap="round">
    <path d="M10.373,4.278a2.6,2.6,0,0,1,4.269,0l6.423,9.355a2.521,2.521,0,0,1-2.134,3.931H6.084A2.521,2.521,0,0,1,3.95,13.633Z" stroke="none"/>
    <path d="M 12.50720691680908 6.469151496887207 L 6.950008392333984 14.56362724304199 L 18.06441116333008 14.56362724304199 L 12.50720691680908 6.469151496887207 M 12.50720596313477 3.163625717163086 C 13.31945514678955 3.163625717163086 14.13170528411865 3.534927368164062 14.64153480529785 4.27752685546875 L 21.06442451477051 13.6329460144043 C 22.21467590332031 15.30838680267334 20.99010467529297 17.56362724304199 18.93009567260742 17.56362724304199 L 6.084314346313477 17.56362724304199 C 4.02430534362793 17.56362724304199 2.799734115600586 15.30838680267334 3.949995040893555 13.6329460144043 L 10.37288475036621 4.27752685546875 C 10.88271045684814 3.534927368164062 11.6949577331543 3.163625717163086 12.50720596313477 3.163625717163086 Z" stroke="none" fill="#fff"/>
  </g>
</svg>
